Coordinates
version=1
nRows=54
nColumns=12
inDegrees=yes

Units are S.I. units (second, meters, Newtons, ...)
Angles are in degrees

endheader
time	SC_y	SC_z	SC_x	AC_y	AC_z	AC_x	GH_y	GH_z	GH_yy	EL_x	PS_y
       0.0              -25.62          1.593          56.41          51.12         -8.926         -1.066         -100.2          13.46          2.013          119.3           73.9
   0.01341              -25.62          1.599          56.41          51.11         -8.928         -1.063         -100.2          13.47          2.039          119.3           73.9
   0.02681              -25.62          1.605           56.4          51.11         -8.929          -1.06         -100.3          13.49          2.066          119.3          73.91
   0.04022              -25.62          1.611          56.39          51.11         -8.931         -1.057         -100.3           13.5          2.095          119.3          73.92
   0.05363              -25.62          1.617          56.39          51.11         -8.933         -1.054         -100.3          13.51          2.125          119.3          73.93
   0.06703              -25.62          1.624          56.38          51.11         -8.935          -1.05         -100.3          13.52          2.158          119.3          73.94
   0.08044              -25.62          1.631          56.37          51.11         -8.937         -1.047         -100.3          13.53          2.193          119.3          73.95
   0.09385              -25.62          1.639          56.37           51.1         -8.939         -1.043         -100.3          13.55           2.23          119.3          73.96
    0.1073              -25.63          1.648          56.36           51.1         -8.941         -1.039         -100.3          13.56          2.271          119.2          73.97
    0.1207              -25.63          1.657          56.35           51.1         -8.944         -1.034         -100.3          13.58          2.313          119.2          73.98
    0.1341              -25.63          1.667          56.34           51.1         -8.946         -1.029         -100.3           13.6           2.36          119.2          73.99
    0.1475              -25.63          1.677          56.33           51.1         -8.949         -1.024         -100.3          13.62          2.409          119.2          74.01
    0.1609              -25.63          1.688          56.32          51.09         -8.953         -1.019         -100.4          13.64          2.463          119.2          74.02
    0.1743              -25.63          1.701          56.31          51.09         -8.956         -1.013         -100.4          13.66           2.52          119.2          74.04
    0.1877              -25.64          1.714           56.3          51.09          -8.96         -1.006         -100.4          13.68          2.583          119.2          74.05
    0.2011              -25.64          1.728          56.28          51.08         -8.964         -0.999         -100.4          13.71          2.651          119.2          74.07
    0.2145              -25.64          1.744          56.27          51.08         -8.968        -0.9913         -100.4          13.74          2.724          119.1          74.09
    0.2279              -25.64          1.761          56.25          51.07         -8.973        -0.9829         -100.4          13.77          2.805          119.1          74.12
    0.2413              -25.65          1.779          56.24          51.07         -8.978        -0.9738         -100.5           13.8          2.892          119.1          74.14
    0.2547              -25.65            1.8          56.22          51.07         -8.984        -0.9638         -100.5          13.84          2.988          119.1          74.17
    0.2681              -25.65          1.822           56.2          51.06          -8.99        -0.9528         -100.5          13.88          3.094          119.0           74.2
    0.2815              -25.66          1.847          56.17          51.05         -8.997        -0.9407         -100.6          13.93           3.21          119.0          74.23
    0.2949              -25.66          1.874          56.15          51.05         -9.004        -0.9273         -100.6          13.97          3.338          119.0          74.27
    0.3083              -25.67          1.904          56.12          51.04         -9.012        -0.9125         -100.6          14.03           3.48          118.9          74.31
    0.3218              -25.67          1.937          56.09          51.03         -9.022         -0.896         -100.7          14.09          3.638          118.9          74.35
    0.3352              -25.68          1.974          56.05          51.02         -9.032        -0.8776         -100.7          14.16          3.814          118.8           74.4
    0.3486              -25.68          2.016          56.01          51.01         -9.044         -0.857         -100.8          14.23          4.011          118.8          74.45
     0.362              -25.69          2.063          55.97           51.0         -9.057        -0.8338         -100.8          14.32          4.233          118.7          74.52
    0.3754               -25.7          2.116          55.92          50.99         -9.072        -0.8077         -100.9          14.42          4.484          118.7          74.59
    0.3888              -25.71          2.176          55.86          50.97         -9.088        -0.7779         -101.0          14.52          4.768          118.6          74.67
    0.4022              -25.72          2.245           55.8          50.96         -9.107         -0.744         -101.0          14.65          5.093          118.5          74.76
    0.4156              -25.73          2.324          55.72          50.94         -9.129        -0.7051         -101.1          14.79          5.466          118.4          74.86
     0.429              -25.75          2.415          55.64          50.91         -9.155        -0.6601         -101.2          14.96          5.897          118.3          74.98
    0.4424              -25.76          2.521          55.54          50.89         -9.184        -0.6079         -101.4          15.15          6.397          118.2          75.12
    0.4558              -25.78          2.645          55.42          50.86         -9.219        -0.5468         -101.5          15.38          6.983          118.0          75.28
    0.4692              -25.81          2.791          55.28          50.82         -9.259        -0.4748         -101.7          15.64          7.673          117.8          75.48
    0.4826              -25.84          2.964          55.12          50.78         -9.308        -0.3892         -101.9          15.96          8.493          117.6          75.71
     0.496              -25.87          3.172          54.92          50.73         -9.366        -0.2865         -102.2          16.34          9.476          117.4          75.98
    0.5094              -25.91          3.424          54.68          50.66         -9.436        -0.1624         -102.5          16.79          10.66          117.0          76.31
    0.5229              -25.96          3.731          54.39          50.59         -9.521       -0.01074         -102.9          17.35          12.12          116.7          76.72
    0.5363              -26.02          4.111          54.04           50.5         -9.627         0.1764         -103.3          18.04          13.91          116.2          77.22
    0.5497              -26.09          4.584          53.59          50.38         -9.758         0.4098         -103.9           18.9          16.15          115.6          77.84
    0.5631              -26.19           5.18          53.03          50.23         -9.924         0.7039         -104.6          19.99          18.96          114.9          78.63
    0.5765              -26.31          5.937          52.31          50.04         -10.14          1.078         -105.6          21.36          22.54          113.9          79.63
    0.5899              -26.46          6.907           51.4          49.81          -10.4          1.556         -106.7          23.13          27.13          112.7          80.91
    0.6033              -26.66          8.151          50.23           49.5         -10.75           2.17         -108.3          25.39          33.01          111.2          82.55
    0.6167              -26.91          9.741          48.73          49.11         -11.19          2.954         -110.2          28.28          40.52          109.2          84.65
    0.6301              -27.23          11.74          46.84          48.61         -11.75           3.94         -112.7          31.91          49.96          106.7          87.29
    0.6435              -27.62          14.17          44.55          48.01         -12.43          5.142         -115.7          36.34          61.48          103.7          90.51
    0.6569              -28.06           17.0          41.88          47.32         -13.21          6.535         -119.1          41.47          74.82          100.2          94.23
    0.6703              -28.55          20.05           39.0          46.56         -14.06          8.043         -122.9          47.03          89.26          96.43          98.27
    0.6837              -29.04          23.11          36.12          45.81         -14.92          9.551         -126.6          52.59          103.7          92.64          102.3
    0.6971              -29.48          25.93          33.46          45.11          -15.7          10.94         -130.1          57.72          117.1          89.14          106.0
    0.7105              -29.87          28.37          31.16          44.51         -16.38          12.15         -133.0          62.15          128.6          86.12          109.2
